<svg xmlns="http://www.w3.org/2000/svg" aria-hidden="true" style="position:absolute;width:0;height:0;overflow:hidden">
  <defs>
    <symbol id="icon-facebook" viewBox="0 0 32 32">
      <path stroke-linecap="round" stroke-linejoin="round" stroke-width="2.667" d="M24 2.667h-4a6.67 6.67 0 0 0-6.667 6.667v4h-4v5.333h4v10.667h5.333V18.667h4l1.333-5.333h-5.333v-4A1.334 1.334 0 0 1 20 8h4V2.667z"/>
    </symbol>   
    <symbol id="icon-icon-5" viewBox="0 0 45 32">
      <path d="M42.17.638a2.108 2.108 0 0 0-3.022 0L13.542 26.74 3.699 16.707c-.835-.851-2.188-.851-3.023 0s-.835 2.23 0 3.081L12.03 31.362a2.11 2.11 0 0 0 3.023 0L42.17 3.719a2.208 2.208 0 0 0 0-3.081z"/>
    </symbol>
    <symbol id="icon-instagram" viewBox="0 0 32 32">
      <path stroke-linecap="round" stroke-linejoin="round" stroke-width="2.667" d="M22.667 2.667H9.334a6.667 6.667 0 0 0-6.667 6.667v13.333a6.667 6.667 0 0 0 6.667 6.667h13.333a6.667 6.667 0 0 0 6.667-6.667V9.334a6.667 6.667 0 0 0-6.667-6.667z"/>
      <path stroke-linecap="round" stroke-linejoin="round" stroke-width="2.667" d="M21.333 15.16a5.338 5.338 0 0 1-6.123 6.049 5.334 5.334 0 1 1 6.124-6.048zm2-6.493h.013"/>
    </symbol>    
    <symbol id="icon-mobile-screen" viewBox="0 0 21 32">
      <path d="M16.935 2.286H3.636c-1.377 0-2.494 1.152-2.494 2.571v22.286c0 1.42 1.117 2.571 2.494 2.571h13.299c1.377 0 2.494-1.152 2.494-2.571V4.857c0-1.42-1.117-2.571-2.494-2.571zm-4.156 23.952c0 .52-.374.905-.831.905H8.577c-.41 0-.784-.386-.784-.857s.374-.857.831-.857h3.325c.457 0 .831.386.831.809zm3.325-3.381H4.468V5.714h11.636v17.143z"/>
    </symbol>
    <symbol id="icon-twitter" viewBox="0 0 32 32">
      <path stroke-linecap="round" stroke-linejoin="round" stroke-width="2.667" d="M30.667 4.013a14.542 14.542 0 0 1-4.187 2.04 5.975 5.975 0 0 0-6.637-1.661A5.979 5.979 0 0 0 16 10.053v1.333a14.211 14.211 0 0 1-12-6.04s-5.333 12 6.667 17.333a15.519 15.519 0 0 1-9.333 2.667c12 6.667 26.667 0 26.667-15.333a5.966 5.966 0 0 0-.107-1.107 10.288 10.288 0 0 0 2.773-4.893z"/>
    </symbol>
    <symbol id="icon-header-icon" viewBox="0 0 32 32">
      <path d="M16 29.333c7.352 0 13.333-5.981 13.333-13.333s-5.981-13.333-13.333-13.333c-7.352 0-13.333 5.981-13.333 13.333s5.981 13.333 13.333 13.333zM16 5.333c5.881 0 10.667 4.785 10.667 10.667s-4.785 10.667-10.667 10.667c-5.881 0-10.667-4.785-10.667-10.667s4.785-10.667 10.667-10.667z"></path>
      <path d="M25.333 16c0-5.155-4.18-9.333-9.333-9.333v18.667c5.153 0 9.333-4.179 9.333-9.333z"></path>
    </symbol>
    <symbol id="icon-triangle" viewBox="0 0 28 32">
      <path d="M26.087 12.891c2.441 1.355 2.441 4.864 0 6.219l-21.156 11.739c-2.368 1.316-5.28-0.398-5.28-3.111v-23.474c0-2.711 2.912-4.423 5.28-3.111l21.156 11.739z"></path>
    </symbol>
    <symbol id="icon-icon-1" viewBox="0 0 21 32">
      <path d="M19.042 18.067l-17.21-17.21c-0.202-0.219-0.471-0.319-0.756-0.319-0.134 0-0.286 0.034-0.403 0.084-0.403 0.168-0.672 0.555-0.672 0.992v25.277c0 0.437 0.269 0.824 0.672 0.992 0.118 0.050 0.269 0.084 0.403 0.084 0.286 0 0.555-0.118 0.756-0.319l5.244-5.244 3.21 7.597c0.235 0.538 0.857 0.807 1.412 0.571l2.975-1.261c0.538-0.235 0.807-0.857 0.571-1.412l-3.378-8h6.42c0.437 0 0.824-0.269 0.992-0.672 0.168-0.387 0.084-0.857-0.235-1.16z"></path>
    </symbol>
    <symbol id="icon-icon-2" viewBox="0 0 41 32">
      <path d="M21.673 12.898l2.674 1.245 3.98-1.184v-2.775c0-4.714-3.98-8.49-8.735-8.49-4.735 0-8.735 3.755-8.735 8.429v12.653c0 1.163-0.939 2.082-2.082 2.082s-2.082-0.918-2.082-2.082v-5.347h-6.694c0 5.367 0 5.429 0 5.429 0 4.837 3.918 8.755 8.755 8.755 4.796 0 8.755-3.857 8.755-8.633v-12.49c0-1.143 0.939-2.082 2.082-2.082s2.082 0.939 2.082 2.082v2.408zM32.49 17.429v5.612c0 1.143-0.939 2.061-2.082 2.061s-2.082-0.918-2.082-2.061v-5.51l-3.98 1.184-2.674-1.245v5.469c0 4.796 3.939 8.674 8.755 8.674 4.837 0 8.755-3.918 8.755-8.755 0 0 0-0.061 0-5.429h-6.694z"></path>
    </symbol>
    <symbol id="icon-icon-3" viewBox="0 0 34 32">
      <path d="M17.067 30.172c0.305 0 0.61-0.114 0.838-0.343l11.867-11.428c0.171-0.171 4.362-4 4.362-8.571 0-5.581-3.41-8.914-9.105-8.914-3.333 0-6.457 2.629-7.962 4.114-1.505-1.486-4.629-4.114-7.962-4.114-5.695 0-9.105 3.333-9.105 8.914 0 4.571 4.191 8.4 4.343 8.533l11.886 11.467c0.229 0.229 0.533 0.343 0.838 0.343z"></path>
    </symbol>
    <symbol id="icon-icon-4" viewBox="0 0 26 32">
      <path d="M23.664 2.689h1.614c0.302 0 0.538-0.235 0.538-0.538v-1.076c0-0.303-0.235-0.538-0.538-0.538h-24.74c-0.303 0-0.538 0.235-0.538 0.538v1.076c0 0.303 0.235 0.538 0.538 0.538h1.613c0 6.219 2.975 10.723 6.269 12.908-3.294 2.185-6.269 6.689-6.269 12.908h-1.613c-0.303 0-0.538 0.235-0.538 0.538v1.076c0 0.302 0.235 0.538 0.538 0.538h24.74c0.302 0 0.538-0.235 0.538-0.538v-1.076c0-0.302-0.235-0.538-0.538-0.538h-1.614c0-6.219-2.975-10.723-6.269-12.908 3.294-2.185 6.269-6.689 6.269-12.908zM21.513 2.689c0 2.454-0.555 4.622-1.429 6.454h-14.353c-0.874-1.832-1.429-4-1.429-6.454h17.21zM20.555 23.126h-15.294c1.244-3.244 3.479-5.546 5.714-6.454h3.866c2.235 0.908 4.471 3.21 5.714 6.454z"></path>
    </symbol>
    <symbol id="icon-dollar" viewBox="0 0 21 32">
      <path d="M9.593 30.862h2.798l0.024-2.739c5.134-0.391 8.111-3.119 8.123-7.233-0.012-4.043-3.059-6.19-7.281-7.138l-0.7-0.166 0.047-5.929c1.577 0.368 2.538 1.376 2.68 2.87h4.921c-0.059-3.925-2.988-6.735-7.553-7.233l0.024-2.787h-2.798l-0.024 2.763c-4.636 0.451-7.909 3.249-7.885 7.293-0.012 3.581 2.514 5.632 6.617 6.617l1.138 0.285-0.059 6.273c-1.933-0.368-3.237-1.553-3.368-3.534h-4.968c0.119 4.791 3.261 7.47 8.289 7.909l-0.024 2.751zM12.462 23.735l0.047-5.538c1.838 0.581 2.834 1.328 2.846 2.68-0.012 1.435-1.103 2.502-2.893 2.858zM9.759 12.862c-1.482-0.51-2.549-1.281-2.526-2.644 0-1.269 0.901-2.253 2.573-2.597l-0.047 5.241z"></path>
    </symbol>
    <symbol id="icon-star" viewBox="0 0 36 32">
      <path d="M33.813 11.487c-0.102-0.296-0.29-0.556-0.541-0.749s-0.553-0.308-0.869-0.333l-9.261-0.725-4.008-8.736c-0.128-0.281-0.335-0.52-0.598-0.688s-0.569-0.257-0.882-0.257c-0.313-0-0.619 0.089-0.882 0.256s-0.471 0.406-0.599 0.687l-4.008 8.737-9.261 0.725c-0.311 0.024-0.609 0.136-0.857 0.323s-0.437 0.439-0.543 0.728c-0.106 0.289-0.125 0.602-0.055 0.902s0.226 0.573 0.449 0.787l6.844 6.57-2.421 10.321c-0.074 0.312-0.050 0.639 0.068 0.938s0.324 0.556 0.592 0.739c0.268 0.182 0.585 0.281 0.911 0.283s0.645-0.092 0.915-0.27l8.845-5.807 8.846 5.807c0.277 0.181 0.603 0.274 0.935 0.267s0.654-0.114 0.922-0.307 0.47-0.462 0.579-0.771c0.109-0.309 0.118-0.644 0.028-0.958l-2.971-10.238 7.369-6.53c0.483-0.429 0.66-1.097 0.452-1.704v0z"></path>
    </symbol>
    <symbol id="icon-star-noactive" viewBox="0 0 34 32">
      <path d="M8.624 19.716l-2.421 10.321c-0.075 0.313-0.052 0.64 0.065 0.94s0.323 0.558 0.591 0.74c0.268 0.183 0.586 0.281 0.912 0.283s0.645-0.093 0.916-0.273l8.845-5.807 8.845 5.807c0.277 0.181 0.603 0.274 0.935 0.267s0.654-0.114 0.922-0.307c0.268-0.193 0.47-0.462 0.579-0.771s0.118-0.644 0.028-0.958l-2.971-10.238 7.369-6.53c0.236-0.209 0.405-0.482 0.485-0.785s0.069-0.622-0.033-0.918c-0.102-0.296-0.29-0.556-0.54-0.748s-0.553-0.308-0.87-0.332l-9.261-0.726-4.008-8.736c-0.128-0.281-0.335-0.52-0.598-0.688s-0.569-0.257-0.882-0.257c-0.313 0-0.619 0.089-0.882 0.257s-0.47 0.406-0.598 0.688l-4.008 8.736-9.261 0.725c-0.311 0.024-0.609 0.136-0.857 0.323s-0.437 0.439-0.543 0.728c-0.106 0.289-0.125 0.602-0.055 0.902s0.226 0.573 0.449 0.787l6.846 6.57zM13.259 12.796c0.29-0.023 0.568-0.121 0.806-0.286s0.426-0.39 0.545-0.651l2.922-6.368 2.922 6.368c0.119 0.261 0.308 0.486 0.545 0.651s0.516 0.264 0.806 0.286l6.453 0.504-5.314 4.709c-0.461 0.409-0.645 1.040-0.476 1.628l2.036 7.014-6.069-3.985c-0.266-0.176-0.58-0.27-0.901-0.27s-0.634 0.094-0.901 0.27l-6.342 4.164 1.706-7.272c0.063-0.267 0.054-0.546-0.024-0.81s-0.225-0.502-0.424-0.694l-4.935-4.738 6.644-0.521z"></path>
    </symbol>
    <symbol id="icon-twitter" viewBox="0 0 32 32">
      <path stroke-linejoin="round" stroke-linecap="round" stroke-miterlimit="4" stroke-width="2.6667" d="M30.667 4.013c-1.277 0.901-2.691 1.589-4.187 2.040-0.803-0.923-1.87-1.578-3.057-1.875s-2.437-0.222-3.58 0.214c-1.143 0.436-2.125 1.213-2.812 2.226s-1.047 2.211-1.031 3.435v1.333c-2.343 0.061-4.665-0.459-6.759-1.513s-3.894-2.609-5.241-4.527c0 0-5.333 12 6.667 17.333-2.746 1.864-6.017 2.799-9.333 2.667 12 6.667 26.667 0 26.667-15.333-0.001-0.371-0.037-0.742-0.107-1.107 1.361-1.342 2.321-3.036 2.773-4.893v0z"></path>
    </symbol>
    <symbol id="icon-facebook" viewBox="0 0 32 32">
      <path stroke-linejoin="round" stroke-linecap="round" stroke-miterlimit="4" stroke-width="2.6667" d="M24 2.667h-4c-1.768 0-3.464 0.702-4.714 1.953s-1.953 2.946-1.953 4.714v4h-4v5.333h4v10.667h5.333v-10.667h4l1.333-5.333h-5.333v-4c0-0.354 0.141-0.693 0.391-0.943s0.589-0.391 0.943-0.391h4v-5.333z"></path>
    </symbol>
    <symbol id="icon-instagram" viewBox="0 0 32 32">
      <path stroke-linejoin="round" stroke-linecap="round" stroke-miterlimit="4" stroke-width="2.6667" d="M22.667 2.667h-13.333c-3.682 0-6.667 2.985-6.667 6.667v13.333c0 3.682 2.985 6.667 6.667 6.667h13.333c3.682 0 6.667-2.985 6.667-6.667v-13.333c0-3.682-2.985-6.667-6.667-6.667z"></path>
      <path stroke-linejoin="round" stroke-linecap="round" stroke-miterlimit="4" stroke-width="2.6667" d="M21.333 15.16c0.165 1.11-0.025 2.243-0.542 3.239s-1.334 1.803-2.336 2.308c-1.002 0.504-2.138 0.68-3.245 0.502s-2.131-0.701-2.924-1.494-1.316-1.816-1.494-2.924c-0.178-1.107-0.003-2.243 0.502-3.245s1.312-1.82 2.307-2.336c0.996-0.517 2.129-0.706 3.239-0.542 1.132 0.168 2.18 0.695 2.989 1.504s1.337 1.857 1.505 2.989z"></path>
      <path stroke-linejoin="round" stroke-linecap="round" stroke-miterlimit="4" stroke-width="2.6667" d="M23.333 8.667h0.013"></path>
    </symbol>
  </defs>
</svg>
